<svg id="Capa_1" data-name="Capa 1" xmlns="http://www.w3.org/2000/svg" viewBox="0 0 50 50"><defs><style>.cls-1{fill:#cec9f0;}</style></defs><title>icon</title><path class="cls-1" d="M25,4.17a20.93,20.93,0,0,1,14.84,6.25H33.33a2.08,2.08,0,1,0,0,4.16H42a3.86,3.86,0,0,0,3.87-3.86V2.08a2.08,2.08,0,1,0-4.16,0V6.41A25,25,0,0,0,.1,22.71,2.11,2.11,0,0,0,2,25h.19a2.05,2.05,0,0,0,2.06-1.83A20.85,20.85,0,0,1,25,4.17Z"/><path class="cls-1" d="M48,25h-.19a2.06,2.06,0,0,0-2.06,1.83A20.81,20.81,0,0,1,10.16,39.58h6.51a2.08,2.08,0,0,0,0-4.16H8a3.86,3.86,0,0,0-3.87,3.86h0v8.64a2.08,2.08,0,0,0,4.16,0V43.59A25,25,0,0,0,49.9,27.29,2.11,2.11,0,0,0,48,25Z"/><polygon class="cls-1" points="47.81 25 47.81 25 47.81 25 47.81 25"/></svg>