<svg id="Capa_1" data-name="Capa 1" xmlns="http://www.w3.org/2000/svg" viewBox="0 0 50 50"><defs><style>.cls-1{fill:#6653f2;}</style></defs><title>icon</title><path class="cls-1" d="M34.16,23.33a7.5,7.5,0,1,0-5.31-12.79h0a7.49,7.49,0,0,0,5.31,12.79Zm-4.11-7.49a4.08,4.08,0,0,1,1.21-2.9,4.1,4.1,0,0,1,5.8,0,4.1,4.1,0,1,1-7,2.9Z"/><path class="cls-1" d="M1.73,41.28a1.68,1.68,0,0,0,1.2-.5L7.67,36a1.7,1.7,0,0,0,.5-1.21,1.63,1.63,0,0,0-.5-1.18,1.68,1.68,0,0,0-1.21-.5,1.66,1.66,0,0,0-1.19.5L.53,38.38A1.74,1.74,0,0,0,0,39.59a1.66,1.66,0,0,0,.5,1.19A1.66,1.66,0,0,0,1.73,41.28Z"/><path class="cls-1" d="M12,38h0a1.66,1.66,0,0,0-1.2-.5h0a1.66,1.66,0,0,0-1.19.5L.5,47.09A1.74,1.74,0,0,0,0,48.3a1.68,1.68,0,0,0,.5,1.19,1.71,1.71,0,0,0,1.2.5,1.68,1.68,0,0,0,1.2-.5L12,40.39A1.7,1.7,0,0,0,12,38Z"/><path class="cls-1" d="M13.94,42.33,9.2,47.06a1.74,1.74,0,0,0-.5,1.21,1.68,1.68,0,0,0,.5,1.19,1.71,1.71,0,0,0,1.2.5,1.68,1.68,0,0,0,1.2-.5l4.74-4.73a1.69,1.69,0,0,0,.5-1.21,1.64,1.64,0,0,0-.5-1.19A1.7,1.7,0,0,0,13.94,42.33Z"/><path class="cls-1" d="M49.94,3.92h0A4.08,4.08,0,0,0,46.07.06,38.46,38.46,0,0,0,26.79,3.92a38,38,0,0,0-11.06,9.17l-.05.06-7.14.56a4.1,4.1,0,0,0-3.11,1.82L.49,23a2.9,2.9,0,0,0,2,4.46l5.86.91,0,.11A4.1,4.1,0,0,0,9.46,32L18,40.55a4.13,4.13,0,0,0,3.61,1.14h.07l.9,5.86a2.89,2.89,0,0,0,1.69,2.21,3,3,0,0,0,1.18.25A2.82,2.82,0,0,0,27,49.51l7.49-4.95a4,4,0,0,0,1.82-3.1l.55-7.15.07-.05A37.77,37.77,0,0,0,46.09,23.2,38.62,38.62,0,0,0,49.94,3.92Zm-38,23.89.11-.64V27h0A.25.25,0,0,0,12,27a1.78,1.78,0,0,0-1.75-1.78h0l-.94-.1-5.57-.84L8.26,17.4a.73.73,0,0,1,.53-.32l4.67-.36,2.76-.06a1.78,1.78,0,0,0,1.3-.57l.9-.94a34.2,34.2,0,0,1,9.92-8.21A34.91,34.91,0,0,1,45.87,3.46a.72.72,0,0,1,.67.67,34.68,34.68,0,0,1-3.48,17.52,34.26,34.26,0,0,1-8.33,10,1.63,1.63,0,0,1-.18.14l-.11.1a1.4,1.4,0,0,0-.38.31,1.55,1.55,0,0,0-.43.94l-.36,3.32-.37,4.72a.65.65,0,0,1-.31.53l-6.83,4.51-.86-5.57s-.11-.69-.23-1.27A1.79,1.79,0,0,0,22.93,38a2.18,2.18,0,0,0-.43.05l-.23,0c-.39.08-1,.2-1.31.25a.68.68,0,0,1-.6-.2l-8.5-8.51a.7.7,0,0,1-.21-.59C11.72,28.62,11.8,28.21,11.89,27.81Z"/></svg>