<svg id="Capa_1" data-name="Capa 1" xmlns="http://www.w3.org/2000/svg" viewBox="0 0 50 50"><defs><style>.cls-1{fill:#cec9f0;}</style></defs><title>icon</title><path class="cls-1" d="M25,16.67A8.33,8.33,0,1,0,33.33,25,8.33,8.33,0,0,0,25,16.67Zm0,12.5A4.17,4.17,0,1,1,29.17,25,4.17,4.17,0,0,1,25,29.17Z"/><path class="cls-1" d="M44.36,29h0l-.92-.53a19.28,19.28,0,0,0,0-6.86l.92-.53A6.26,6.26,0,0,0,38.11,10.2l-.92.54a18.67,18.67,0,0,0-5.94-3.42V6.25a6.25,6.25,0,0,0-12.5,0V7.32a18.73,18.73,0,0,0-5.93,3.43l-.93-.54A6.25,6.25,0,1,0,5.64,21l.92.53a18.83,18.83,0,0,0,0,6.86L5.64,29A6.26,6.26,0,1,0,11.89,39.8l.92-.54a18.56,18.56,0,0,0,5.94,3.42v1.07a6.25,6.25,0,0,0,12.5,0V42.68a18.73,18.73,0,0,0,5.93-3.43l.93.54A6.25,6.25,0,1,0,44.36,29Zm-5.31-7.87h0a14.58,14.58,0,0,1,0,7.81,2.09,2.09,0,0,0,1,2.36l2.26,1.31a2.08,2.08,0,0,1-2.08,3.61l-2.27-1.31a2.09,2.09,0,0,0-2.53.34,14.46,14.46,0,0,1-6.75,3.91,2.08,2.08,0,0,0-1.57,2v2.61a2.09,2.09,0,0,1-4.17,0V41.14a2.08,2.08,0,0,0-1.56-2,14.5,14.5,0,0,1-6.75-3.91,2.11,2.11,0,0,0-2.54-.35L9.81,36.17A2.08,2.08,0,1,1,7.7,32.58l0,0L10,31.26a2.1,2.1,0,0,0,1-2.36,14.58,14.58,0,0,1,0-7.81,2.09,2.09,0,0,0-1-2.36l-2.26-1.3A2.08,2.08,0,0,1,9.8,13.82l2.27,1.31a2.09,2.09,0,0,0,2.53-.34,14.53,14.53,0,0,1,6.75-3.9,2.1,2.1,0,0,0,1.57-2V6.25a2.08,2.08,0,1,1,4.16,0V8.86a2.1,2.1,0,0,0,1.57,2,14.55,14.55,0,0,1,6.75,3.91,2.11,2.11,0,0,0,2.54.35l2.25-1.31a2.08,2.08,0,0,1,2.11,3.59l0,0L40,18.74A2.08,2.08,0,0,0,39.05,21.09Z"/></svg>