<svg id="Capa_1" data-name="Capa 1" xmlns="http://www.w3.org/2000/svg" viewBox="0 0 50 50"><defs><style>.cls-1{fill:#cec9f0;}</style></defs><title>icon</title><path class="cls-1" d="M25,0A25,25,0,1,0,50,25,25,25,0,0,0,25,0Zm0,45.83A20.83,20.83,0,1,1,45.83,25,20.82,20.82,0,0,1,25,45.83Z"/><path class="cls-1" d="M26.49,10.55a8.33,8.33,0,0,0-9.69,6.7,8.44,8.44,0,0,0-.13,1.5,2.08,2.08,0,0,0,4.16,0A4.17,4.17,0,0,1,25,14.58a3.94,3.94,0,0,1,.77.07A4.23,4.23,0,0,1,29.11,18,4.17,4.17,0,0,1,27,22.4a8.24,8.24,0,0,0-4.1,7.3v1.55a2.08,2.08,0,0,0,4.16,0V29.7A4.15,4.15,0,0,1,29,26.05a8.33,8.33,0,0,0-2.53-15.5Z"/><circle class="cls-1" cx="25" cy="37.5" r="2.08"/></svg>