<svg id="Capa_1" data-name="Capa 1" xmlns="http://www.w3.org/2000/svg" viewBox="0 0 50 50"><defs><style>.cls-1{fill:#cec9f0;}</style></defs><title>icon</title><path class="cls-1" d="M17.67,19.73h0a1.87,1.87,0,0,0-1.32,3.2l7.33,7.33a1.88,1.88,0,0,0,1.32.55,1.84,1.84,0,0,0,1.32-.55l7.33-7.33a1.86,1.86,0,0,0,.55-1.32A1.88,1.88,0,0,0,31,20.28l-4.13,4.13V1.87a1.87,1.87,0,0,0-3.74,0V24.41L19,20.28A1.87,1.87,0,0,0,17.67,19.73Z"/><path class="cls-1" d="M48.05,31.8l-4.8-17.38a1.88,1.88,0,0,0-1-1.2l-.14-.07a1.91,1.91,0,0,0-.78-.16H32.64a1.87,1.87,0,0,0,0,3.74H40L43.8,30.47H33.7a1.87,1.87,0,0,0-1.87,1.87v1.25A2.83,2.83,0,0,1,29,36.41H20.57a2.83,2.83,0,0,1-2.83-2.82V32.34a1.87,1.87,0,0,0-1.87-1.87H6.19L10,16.7h7.37a1.87,1.87,0,0,0,0-3.74H8.69a1.91,1.91,0,0,0-.78.16l-.14.07a1.84,1.84,0,0,0-1,1.2L1.94,31.8a1.81,1.81,0,0,0-.07.49v7.25A10.47,10.47,0,0,0,12.33,50H37.67A10.47,10.47,0,0,0,48.13,39.54V32.32A1.5,1.5,0,0,0,48.05,31.8ZM44.4,34.21l0,5.33a6.73,6.73,0,0,1-6.71,6.72H12.33a6.73,6.73,0,0,1-6.71-6.72V34.21h8.43a6.61,6.61,0,0,0,6.54,5.93H29a6.6,6.6,0,0,0,6.54-5.93Z"/></svg>