<svg id="Capa_1" data-name="Capa 1" xmlns="http://www.w3.org/2000/svg" viewBox="0 0 50 50"><defs><style>.cls-1{fill:#cec9f0;}</style></defs><title>icon</title><path class="cls-1" d="M43.75,12.5H37.5a12.5,12.5,0,0,0-25,0H6.25A6.25,6.25,0,0,0,0,18.75V39.58A10.44,10.44,0,0,0,10.42,50H39.58A10.44,10.44,0,0,0,50,39.58V18.75A6.25,6.25,0,0,0,43.75,12.5ZM25,4.17a8.33,8.33,0,0,1,8.33,8.33H16.67A8.33,8.33,0,0,1,25,4.17ZM45.83,39.58a6.24,6.24,0,0,1-6.25,6.25H10.42a6.24,6.24,0,0,1-6.25-6.25V18.75a2.08,2.08,0,0,1,2.08-2.08H12.5v4.16a2.09,2.09,0,1,0,4.17,0V16.67H33.33v4.16a2.09,2.09,0,1,0,4.17,0V16.67h6.25a2.08,2.08,0,0,1,2.08,2.08Z"/></svg>