<svg xmlns="http://www.w3.org/2000/svg" id="treli-logo" width="125.967" height="41.512" viewBox="0 0 125.967 41.512"><path id="Trazado_56" data-name="Trazado 56" d="M683.8,843.381a5.985,5.985,0,0,1-4.765-1.952,8.032,8.032,0,0,1-1.7-5.455v-8.39h-1.739a1,1,0,0,1-1-1v-3.335a1,1,0,0,1,1-1h1.739v-6.683a1,1,0,0,1,1-1h4.137a1,1,0,0,1,1,1v6.683h3.5a1,1,0,0,1,1,1v3.335a1,1,0,0,1-1,1h-3.5v7.95a2.811,2.811,0,0,0,.471,1.762,1.592,1.592,0,0,0,1.331.6,2.842,2.842,0,0,0,.936-.158,1,1,0,0,1,1.262.657l.924,2.952a1.01,1.01,0,0,1-.589,1.234,10.669,10.669,0,0,1-1.483.481A10.507,10.507,0,0,1,683.8,843.381Z" transform="translate(-623.39 -808.164)" fill="#14264c"></path><path id="Trazado_57" data-name="Trazado 57" d="M785.773,880.281V861.287a1,1,0,0,1,1-1h4.137a1,1,0,0,1,1,1v1.939a8.132,8.132,0,0,1,2.793-2.653,7.119,7.119,0,0,1,3.554-.931,8.435,8.435,0,0,1,2.242.32,8.823,8.823,0,0,1,1,.336,1,1,0,0,1,.509,1.37l-1.664,3.366a1,1,0,0,1-1.3.475,6.554,6.554,0,0,0-.752-.272,5.972,5.972,0,0,0-1.692-.27,4.519,4.519,0,0,0-2.282.621,5.125,5.125,0,0,0-1.742,1.612,3.772,3.772,0,0,0-.661,2.132v10.949a1,1,0,0,1-1,1h-4.137A1,1,0,0,1,785.773,880.281Z" transform="translate(-717.199 -846.207)" fill="#14264c"></path><path id="Trazado_58" data-name="Trazado 58" d="M899.92,881.423a12.266,12.266,0,0,1-5.956-1.431,11.058,11.058,0,0,1-4.174-3.894,10.268,10.268,0,0,1-1.542-5.566,10.48,10.48,0,0,1,.871-4.264,10.724,10.724,0,0,1,2.432-3.474,11.315,11.315,0,0,1,3.624-2.322,11.837,11.837,0,0,1,4.465-.831,11.438,11.438,0,0,1,5.615,1.331,9.59,9.59,0,0,1,3.764,3.694,10.9,10.9,0,0,1,1.351,5.505q0,.26-.01.45v0a.753.753,0,0,1-.753.707H894.575a5.111,5.111,0,0,0,.711,2.723,4.851,4.851,0,0,0,1.992,1.812,6.5,6.5,0,0,0,2.983.651,6.207,6.207,0,0,0,2.833-.621,7.054,7.054,0,0,0,1.882-1.435,1,1,0,0,1,1.175-.2l2.73,1.371a1,1,0,0,1,.358,1.494,10.171,10.171,0,0,1-3.432,2.9A12.368,12.368,0,0,1,899.92,881.423ZM894.8,867.93h9.529a4.607,4.607,0,0,0-.851-2.042,4.28,4.28,0,0,0-1.652-1.321,5.356,5.356,0,0,0-2.262-.46,5.7,5.7,0,0,0-2.362.46,4.016,4.016,0,0,0-1.642,1.321A4.288,4.288,0,0,0,894.8,867.93Z" transform="translate(-803.659 -846.207)" fill="#14264c"></path><path id="Trazado_59" data-name="Trazado 59" d="M1052.082,842.82V816.082a1,1,0,0,1,1-1h4.137a1,1,0,0,1,1,1V842.82a1,1,0,0,1-1,1h-4.137A1,1,0,0,1,1052.082,842.82Z" transform="translate(-941.886 -808.608)" fill="#14264c"></path><path id="Trazado_60" data-name="Trazado 60" d="M1116.64,821.244a2.99,2.99,0,0,1-1.55-.415,3.164,3.164,0,0,1-1.126-1.127,2.99,2.99,0,0,1-.423-1.558,2.9,2.9,0,0,1,.423-1.542,3.214,3.214,0,0,1,1.126-1.109,2.992,2.992,0,0,1,1.55-.415,2.95,2.95,0,0,1,1.542.415,3.173,3.173,0,0,1,1.109,1.109,2.95,2.95,0,0,1,.415,1.542,3.037,3.037,0,0,1-.415,1.558,3.124,3.124,0,0,1-1.109,1.127A2.949,2.949,0,0,1,1116.64,821.244Zm-3.08,21.576V824.8a1,1,0,0,1,1-1h4.137a1,1,0,0,1,1,1V842.82a1,1,0,0,1-1,1h-4.137A1,1,0,0,1,1113.56,842.82Z" transform="translate(-993.739 -808.608)" fill="#14264c"></path><g id="Grupo_5425" data-name="Grupo 5425" transform="translate(0 0)"><path id="Trazado_61" data-name="Trazado 61" d="M411.269,773.678H378.776a4.965,4.965,0,0,1,4.965,4.965v4.965H406.3V805.26h4.965a4.965,4.965,0,0,1,4.965,4.965V778.643A4.965,4.965,0,0,0,411.269,773.678Z" transform="translate(-373.811 -773.678)" fill="#6653f2"></path><path id="Trazado_62" data-name="Trazado 62" d="M379.5,837.029v-4.965H356.938V810.412h-4.965a4.965,4.965,0,0,1-4.965-4.965v31.582a4.965,4.965,0,0,0,4.965,4.965h32.493A4.965,4.965,0,0,1,379.5,837.029Z" transform="translate(-347.008 -800.482)" fill="#9e8dff"></path><path id="Trazado_63" data-name="Trazado 63" d="M559.874,975.75h-4.965v4.965a4.965,4.965,0,0,0,4.965,4.965h0a4.965,4.965,0,0,0,4.965-4.965h0A4.965,4.965,0,0,0,559.874,975.75Z" transform="translate(-522.416 -944.168)" fill="#3f2ef2"></path><path id="Trazado_64" data-name="Trazado 64" d="M351.973,783.608h4.965v-4.965a4.965,4.965,0,0,0-4.965-4.965h0a4.965,4.965,0,0,0-4.965,4.965h0A4.965,4.965,0,0,0,351.973,783.608Z" transform="translate(-347.008 -773.678)" fill="#3f2ef2"></path></g></svg>